<?xml version="1.0" encoding="UTF-8" standalone="no"?>
<svg
   width="1400"
   height="1400"
   viewBox="0 0 1400 1400"
   fill="none"
   version="1.1"
   id="svg26763"
   sodipodi:docname="GitHub-logo.svg"
   inkscape:version="1.2.2 (732a01da63, 2022-12-09)"
   xmlns:inkscape="http://www.inkscape.org/namespaces/inkscape"
   xmlns:sodipodi="http://sodipodi.sourceforge.net/DTD/sodipodi-0.dtd"
   xmlns="http://www.w3.org/2000/svg"
   xmlns:svg="http://www.w3.org/2000/svg">
  <defs
     id="defs26767" />
  <sodipodi:namedview
     id="namedview26765"
     pagecolor="#ffffff"
     bordercolor="#000000"
     borderopacity="0.25"
     inkscape:showpageshadow="2"
     inkscape:pageopacity="0.0"
     inkscape:pagecheckerboard="0"
     inkscape:deskcolor="#d1d1d1"
     showgrid="true"
     inkscape:zoom="0.70917838"
     inkscape:cx="788.2361"
     inkscape:cy="659.91859"
     inkscape:window-width="2560"
     inkscape:window-height="1369"
     inkscape:window-x="2552"
     inkscape:window-y="-8"
     inkscape:window-maximized="1"
     inkscape:current-layer="svg26763">
    <inkscape:grid
       type="xygrid"
       id="grid26940"
       originx="0"
       originy="0" />
  </sodipodi:namedview>
  <g
     id="g27096"
     transform="translate(-566.02618,-19.473965)">
    <rect
       style="fill:#1b1f23;fill-opacity:1;stroke:#000000;stroke-width:1.16528;stroke-linejoin:round;paint-order:fill markers stroke"
       id="rect26938"
       width="1398.8347"
       height="1398.8347"
       x="566.60883"
       y="20.056606"
       rx="46.44569"
       ry="34.790401" />
    <g
       id="g27083"
       transform="translate(132.75007,44.463384)">
      <g
         id="g27072"
         transform="translate(633.77613)">
        <path
           d="m 107,1181.3902 c -2,0 -4,2 -4,4 v 41 c 0,2 2,4 4,4 h 33 v 51 c 0,0 -7,3 -28,3 -24,0 -57,-9 -57,-83 0,-74 35,-83 68,-83 29,0 41,5 49,7 2,1 5,-2 5,-4 l 9,-40 c 0,-1 0,-2 -2,-3 -3,-2 -22,-13 -71,-13 -57,0 -113,23 -113,139 0,115 66,132 121,132 46,0 74,-19 74,-19 1,-1 1,-2 1,-3 v -129 c 0,-2 -2,-4 -4,-4"
           id="path26624"
           style="fill:#ffffff" />
        <path
           d="m 623.99999,1079.3902 c 0,-2 -2,-4 -4,-4 h -47 c -2,0 -4,2 -4,4 0,0 0,91 0,91 H 495 v -91 c 0,-2 -2,-4 -4,-4 h -47 c -2,0 -4,2 -4,4 v 247 c 0,2 2,4 4,4 h 47 c 2,0 4,-2 4,-4 v -106 h 73.99999 v 106 c 0,2 2,4 4,4 h 47 c 2,0 4,-2 4,-4 v -247"
           id="path26626"
           style="fill:#ffffff" />
        <circle
           cx="249.99998"
           cy="1112.3903"
           r="31"
           id="circle26628"
           style="fill:#ffffff" />
        <path
           d="m 277,1160.3902 c 0,-2 -2,-4 -4,-4 h -47 c -2,0 -4,2 -4,4 v 164 c 0,5 3,6 7,6 h 43 c 5,0 6,-2 6,-6"
           id="path26630"
           style="fill:#ffffff" />
        <path
           d="m 756.99999,1157.3902 c -2,0 -4,2 -4,4 v 121 c 0,0 -12,9 -29,9 -17,0 -21,-8 -21,-24 v -106 c 0,-2 -2,-4 -4,-4 h -47 c -2,0 -4,2 -4,4 v 114 c 0,49 27,61 65,61 31,0 56,-17 56,-17 0,0 1,9 2,10 1,1 2,2 3,2 h 30 c 2,0 4,-2 4,-4 v -166 c 0,-2 -2,-4 -4,-4"
           id="path26632"
           style="fill:#ffffff" />
        <path
           d="m 914.99999,1292.3902 c -20,0 -29,-9 -29,-9 v -79 c 0,0 11,-7 24,-8 17,-2 33,4 33,44 0,43 -5,52 -29,52 z m -27,-129 v -84 c 0,-2 -2,-4 -4,-4 h -47 c -2,0 -4,2 -4,4 v 247 c 0,2 2,4 4,4 h 33 c 1,0 3,-1 3,-2 1,-1 2,-11 2,-11 0,0 19,19 56,19 43,0 68,-22 68,-98 0,-76 -39,-86 -66,-86 -27,0 -45,12 -45,12 z"
           id="path26634"
           style="fill:#ffffff" />
        <path
           d="m 378,1156.3902 v -47 c 0,-2 -1,-3 -3,-3 h -49 c -2,0 -3,1 -3,4 v 49 c 0,0 -24,6 -26,6 -2,1 -3,2 -3,4 v 31 c 0,2 2,4 4,4 h 25 v 73 c 0,55 38,60 64,60 12,0 26,-4 28,-5 1,-1 2,-2 2,-4 v -33 c 0,-2 -2,-4 -4,-4 -2,0 -7,1 -13,1 -17,0 -23,-8 -23,-19 0,-11 0,-69 0,-69 h 35 c 2,0 4,-2 4,-4 v -40 c 0,-2 -2,-4 -4,-4"
           id="path26636"
           style="fill:#ffffff" />
      </g>
      <path
         fill-rule="evenodd"
         clip-rule="evenodd"
         d="m 1133.2761,12.630962 c -282.87998,0 -511.99998,229.119998 -511.99998,511.999998 0,226.56 146.56,417.92 350.08,485.76004 25.6,4.48 35.19998,-10.88004 35.19998,-24.32004 0,-12.16 -0.64,-52.48 -0.64,-95.36 -128.63998,23.68 -161.91998,-31.36 -172.15998,-60.16 -5.76,-14.72 -30.72,-60.16 -52.48,-72.32 -17.92,-9.6 -43.52,-33.28 -0.64,-33.92 40.32,-0.64 69.12,37.12 78.72,52.48 46.08,77.44 119.68,55.68 149.11998,42.24 4.48,-33.28 17.92,-55.68 32.64,-68.48 -113.91998,-12.8 -232.95998,-56.96 -232.95998,-252.8 0,-55.68 19.84,-101.76 52.48,-137.6 -5.12,-12.8 -23.04,-65.28 5.12,-135.68 0,0 42.88,-13.44 140.79998,52.48 40.96,-11.52 84.48,-17.28 128,-17.28 43.52,0 87.04,5.76 128,17.28 97.92,-66.56 140.8,-52.48 140.8,-52.48 28.16,70.4 10.24,122.88 5.12,135.68 32.64,35.84 52.48,81.28 52.48,137.6 0,196.48 -119.68,240 -233.6,252.8 18.56,16 34.56,46.72 34.56,94.72 0,68.48 -0.64,123.52 -0.64,140.8 0,13.44 9.6,29.44004 35.2,24.32004 202.24,-67.84004 348.8,-259.84004 348.8,-485.76004 0,-282.88 -229.12,-511.999998 -512,-511.999998 z"
         fill="#1b1f23"
         id="path26761"
         style="fill:#ffffff;stroke-width:64" />
    </g>
  </g>
</svg>
