<svg xmlns="http://www.w3.org/2000/svg" width="3238" height="949" viewBox="0 0 3035.625 889.687" xmlns:v="https://vecta.io/nano"><style><![CDATA[.B{fill:none}.C{stroke-width:3.713}.D{stroke-linejoin:round}]]></style><defs><linearGradient id="A" x1="1.287" y1="444.844" x2="3034.337" y2="444.844" gradientUnits="userSpaceOnUse"><stop offset="0" stop-color="#fff" stop-opacity=".86"/><stop offset=".523" stop-color="#fff" stop-opacity=".96"/><stop offset="1" stop-color="#fff" stop-opacity=".86"/></linearGradient><path id="B" d="M567.187 47.812h6.328c41.42 0 34.459 75.501 75.938 75.938h6.328"/><path id="C" d="M832.969 123.75h6.328c41.42 0 34.459-75.501 75.938-75.938h6.328"/><path id="D" d="M1022.813 275.625h6.328c41.42 0 34.459-75.501 75.938-75.937h6.328"/><path id="E" d="M301.406 123.75h6.328c41.42 0 34.459-75.501 75.938-75.937H390"/><path id="F" d="M187.5 427.5h6.328c41.42 0 34.459 75.501 75.937 75.938h6.328"/><path id="G" d="M1832.813 655.312h-6.328c-41.42 0-34.459-75.501-75.937-75.937h-6.328"/><path id="H" d="M1567.031 579.375h-6.328c-41.42 0-34.459 75.501-75.937 75.938h-6.328"/></defs><g transform="matrix(1.262378 0 0 1.262378 2.958736 1.038947)" stroke="gray" class="B C D"><g transform="scale(1 -1)"><circle cx="478.594" cy="-47.812" r="12.656" paint-order="fill markers stroke"/><circle cx="554.531" cy="-47.812" r="12.656" paint-order="fill markers stroke"/><circle cx="630.469" cy="-47.812" r="12.656" paint-order="fill markers stroke"/><circle cx="706.406" cy="-47.812" r="12.656" paint-order="fill markers stroke"/><circle cx="782.344" cy="-47.812" r="12.656" paint-order="fill markers stroke"/><circle cx="858.281" cy="-47.812" r="12.656" paint-order="fill markers stroke"/><circle cx="934.219" cy="-47.812" r="12.656" paint-order="fill markers stroke"/><circle cx="668.437" cy="-123.75" r="12.656" paint-order="fill markers stroke"/><circle cx="744.375" cy="-123.75" r="12.656" paint-order="fill markers stroke"/><circle cx="820.312" cy="-123.75" r="12.656" paint-order="fill markers stroke"/></g><use href="#B" paint-order="fill markers stroke"/><use href="#B" x="189.844" y="75.938" paint-order="fill markers stroke"/><use href="#B" x="455.626" paint-order="fill markers stroke"/><use href="#C" paint-order="fill markers stroke"/><use href="#D" paint-order="fill markers stroke"/><use href="#C" x="341.719" paint-order="fill markers stroke"/><path d="M491.25 47.812h50.625m25.312 0h50.625m25.313 0h50.625m25.312 0h50.625m25.313 0h50.625m253.125 0h50.625m139.219 0h88.594m-202.5 0h88.594m-392.345 0h50.625M681.094 123.75h50.625m25.312 0h50.625" paint-order="fill markers stroke"/><g transform="scale(1 -1)"><circle cx="60.937" cy="-199.687" r="12.656" paint-order="fill markers stroke"/><circle cx="60.937" cy="-123.75" r="12.656" paint-order="fill markers stroke"/><circle cx="136.875" cy="-123.75" r="12.656" paint-order="fill markers stroke"/><circle cx="288.75" cy="-199.687" r="12.656" paint-order="fill markers stroke"/><circle cx="212.812" cy="-123.75" r="12.656" paint-order="fill markers stroke"/><circle cx="136.875" cy="-199.687" r="12.656" paint-order="fill markers stroke"/><circle cx="288.75" cy="-123.75" r="12.656" paint-order="fill markers stroke"/><circle cx="364.687" cy="-199.687" r="12.656" paint-order="fill markers stroke"/><circle cx="98.906" cy="-47.812" r="12.656" paint-order="fill markers stroke"/><circle cx="174.844" cy="-47.812" r="12.656" paint-order="fill markers stroke"/><circle cx="326.719" cy="-47.812" r="12.656" paint-order="fill markers stroke"/></g><path d="M149.531 123.75h6.328c41.42 0 34.459 75.501 75.938 75.937h6.328" paint-order="fill markers stroke"/><use href="#E" paint-order="fill markers stroke"/><path d="M225.469 199.687h50.625m-278.438 0h50.625m63.281-151.875h50.625m177.188 0h126.563m-278.438 0h126.562m-12.656 151.875h50.625m25.313 0h50.625M73.594 123.75h50.625m25.312 0h50.625" paint-order="fill markers stroke"/><path d="M225.469 123.75h50.625" paint-order="fill markers stroke"/><use href="#D" x="-1025.157" y="-149.531" paint-order="fill markers stroke"/><path d="M-2.344 126.094h50.625m25.313 73.593h50.625m25.312 0h126.562" paint-order="fill markers stroke"/><circle cx="630.469" cy="427.5" r="12.656" paint-order="fill markers stroke"/><circle cx="706.406" cy="427.5" r="12.656" paint-order="fill markers stroke"/><circle cx="782.344" cy="427.5" r="12.656" paint-order="fill markers stroke"/><circle cx="858.281" cy="427.5" r="12.656" paint-order="fill markers stroke"/><circle cx="934.219" cy="427.5" r="12.656" paint-order="fill markers stroke"/><circle cx="1010.156" cy="427.5" r="12.656" paint-order="fill markers stroke"/><circle cx="1086.094" cy="427.5" r="12.656" paint-order="fill markers stroke"/><circle cx="820.312" cy="351.563" r="12.656" paint-order="fill markers stroke"/><circle cx="896.25" cy="351.563" r="12.656" paint-order="fill markers stroke"/><circle cx="972.187" cy="351.563" r="12.656" paint-order="fill markers stroke"/><use href="#D" x="-303.751" y="151.875" paint-order="fill markers stroke"/><use href="#D" x="-113.907" y="75.938" paint-order="fill markers stroke"/><use href="#B" x="417.657" y="303.751" paint-order="fill markers stroke"/><use href="#B" x="531.563" y="379.688" paint-order="fill markers stroke"/><path d="M643.125 427.5h50.625m25.312 0h50.625m25.313 0h50.625m25.312 0h50.625m25.313 0H997.5m25.313 0h50.625m-240.469-75.937h50.625m25.312 0h50.625" paint-order="fill markers stroke"/><circle cx="554.531" cy="579.375" r="12.656" paint-order="fill markers stroke"/><circle cx="630.469" cy="579.375" r="12.656" paint-order="fill markers stroke"/><circle cx="706.406" cy="579.375" r="12.656" paint-order="fill markers stroke"/><circle cx="858.281" cy="579.375" r="12.656" paint-order="fill markers stroke"/><circle cx="934.219" cy="579.375" r="12.656" paint-order="fill markers stroke"/><circle cx="1010.156" cy="579.375" r="12.656" paint-order="fill markers stroke"/><circle cx="744.375" cy="503.438" r="12.656" paint-order="fill markers stroke"/><circle cx="820.312" cy="503.438" r="12.656" paint-order="fill markers stroke"/><circle cx="896.25" cy="503.438" r="12.656" paint-order="fill markers stroke"/><use href="#D" x="-379.688" y="303.75" paint-order="fill markers stroke"/><use href="#D" x="379.687" y="303.75" paint-order="fill markers stroke"/><use href="#D" x="-189.844" y="227.813" paint-order="fill markers stroke"/><use href="#B" x="341.719" y="455.626" paint-order="fill markers stroke"/><use href="#B" x="455.626" y="531.563" paint-order="fill markers stroke"/><path d="M567.187 579.375h50.625m25.313 0h50.625m25.313 0h126.563m25.311 0h50.625m480.938 0h50.625m37.969-75.937h37.969m-50.625 75.937h88.594m-620.157 0H997.5m25.313 0h50.625m25.312 0h50.625" paint-order="fill markers stroke"/><path d="M757.031 503.438h50.625m25.313 0h50.625" paint-order="fill markers stroke"/><circle cx="60.937" cy="351.563" r="12.656" paint-order="fill markers stroke"/><circle cx="136.875" cy="351.563" r="12.656" paint-order="fill markers stroke"/><circle cx="212.812" cy="351.563" r="12.656" paint-order="fill markers stroke"/><circle cx="288.75" cy="351.563" r="12.656" paint-order="fill markers stroke"/><circle cx="60.937" cy="503.438" r="12.656" paint-order="fill markers stroke"/><circle cx="60.937" cy="579.375" r="12.656" paint-order="fill markers stroke"/><circle cx="136.875" cy="579.375" r="12.656" paint-order="fill markers stroke"/><circle cx="288.75" cy="503.438" r="12.656" paint-order="fill markers stroke"/><circle cx="212.812" cy="579.375" r="12.656" paint-order="fill markers stroke"/><circle cx="136.875" cy="503.438" r="12.656" paint-order="fill markers stroke"/><circle cx="288.75" cy="579.375" r="12.656" paint-order="fill markers stroke"/><circle cx="440.625" cy="199.688" r="12.656" paint-order="fill markers stroke"/><circle cx="516.562" cy="199.688" r="12.656" paint-order="fill markers stroke"/><circle cx="592.5" cy="199.688" r="12.656" paint-order="fill markers stroke"/><circle cx="364.687" cy="351.563" r="12.656" paint-order="fill markers stroke"/><circle cx="440.625" cy="351.563" r="12.656" paint-order="fill markers stroke"/><circle cx="516.562" cy="351.563" r="12.656" paint-order="fill markers stroke"/><circle cx="592.5" cy="351.563" r="12.656" paint-order="fill markers stroke"/><circle cx="364.687" cy="503.438" r="12.656" paint-order="fill markers stroke"/><circle cx="440.625" cy="503.438" r="12.656" paint-order="fill markers stroke"/><circle cx="516.562" cy="503.438" r="12.656" paint-order="fill markers stroke"/><circle cx="592.5" cy="503.438" r="12.656" paint-order="fill markers stroke"/><circle cx="668.437" cy="199.688" r="12.656" paint-order="fill markers stroke"/><circle cx="744.375" cy="199.688" r="12.656" paint-order="fill markers stroke"/><circle cx="668.437" cy="503.438" r="12.656" paint-order="fill markers stroke"/><circle cx="1124.063" cy="123.75" r="12.656" paint-order="fill markers stroke"/><circle cx="1124.063" cy="199.688" r="12.656" paint-order="fill markers stroke"/><circle cx="1200" cy="199.688" r="12.656" paint-order="fill markers stroke"/><circle cx="1048.125" cy="351.563" r="12.656" paint-order="fill markers stroke"/><circle cx="1124.063" cy="351.563" r="12.656" paint-order="fill markers stroke"/><circle cx="1200" cy="351.563" r="12.656" paint-order="fill markers stroke"/><circle cx="1200" cy="503.438" r="12.656" paint-order="fill markers stroke"/><circle cx="1275.938" cy="47.812" r="12.656" paint-order="fill markers stroke"/><circle cx="1275.938" cy="351.563" r="12.656" paint-order="fill markers stroke"/><circle cx="1351.875" cy="351.563" r="12.656" paint-order="fill markers stroke"/><circle cx="1389.844" cy="427.5" r="12.656" paint-order="fill markers stroke"/><circle cx="1275.938" cy="503.438" r="12.656" paint-order="fill markers stroke"/><circle cx="1541.719" cy="503.438" r="12.656" paint-order="fill markers stroke"/><circle cx="1275.938" cy="655.313" r="12.656" paint-order="fill markers stroke"/><circle cx="1351.875" cy="655.313" r="12.656" paint-order="fill markers stroke"/><circle cx="250.781" cy="275.625" r="12.656" paint-order="fill markers stroke"/><circle cx="326.719" cy="275.625" r="12.656" paint-order="fill markers stroke"/><circle cx="98.906" cy="427.5" r="12.656" paint-order="fill markers stroke"/><circle cx="174.844" cy="427.5" r="12.656" paint-order="fill markers stroke"/><circle cx="98.906" cy="655.312" r="12.656" paint-order="fill markers stroke"/><circle cx="174.844" cy="655.312" r="12.656" paint-order="fill markers stroke"/><circle cx="326.719" cy="655.312" r="12.656" paint-order="fill markers stroke"/><circle cx="402.656" cy="275.625" r="12.656" paint-order="fill markers stroke"/><circle cx="630.469" cy="275.625" r="12.656" paint-order="fill markers stroke"/><circle cx="402.656" cy="427.5" r="12.656" paint-order="fill markers stroke"/><circle cx="478.594" cy="427.5" r="12.656" paint-order="fill markers stroke"/><circle cx="554.531" cy="427.5" r="12.656" paint-order="fill markers stroke"/><circle cx="402.656" cy="655.312" r="12.656" paint-order="fill markers stroke"/><circle cx="478.594" cy="655.312" r="12.656" paint-order="fill markers stroke"/><circle cx="554.531" cy="655.312" r="12.656" paint-order="fill markers stroke"/><circle cx="630.469" cy="655.312" r="12.656" paint-order="fill markers stroke"/><circle cx="706.406" cy="275.625" r="12.656" paint-order="fill markers stroke"/><circle cx="782.344" cy="275.625" r="12.656" paint-order="fill markers stroke"/><circle cx="858.281" cy="199.688" r="12.656" paint-order="fill markers stroke"/><circle cx="934.219" cy="199.688" r="12.656" paint-order="fill markers stroke"/><circle cx="858.281" cy="275.625" r="12.656" paint-order="fill markers stroke"/><circle cx="934.219" cy="275.625" r="12.656" paint-order="fill markers stroke"/><circle cx="706.406" cy="655.312" r="12.656" paint-order="fill markers stroke"/><circle cx="1010.156" cy="47.812" r="12.656" paint-order="fill markers stroke"/><circle cx="1086.094" cy="47.812" r="12.656" paint-order="fill markers stroke"/><circle cx="1162.031" cy="47.812" r="12.656" paint-order="fill markers stroke"/><circle cx="1010.156" cy="199.688" r="12.656" paint-order="fill markers stroke"/><circle cx="1010.156" cy="275.625" r="12.656" paint-order="fill markers stroke"/><circle cx="1086.094" cy="275.625" r="12.656" paint-order="fill markers stroke"/><circle cx="1162.031" cy="275.625" r="12.656" paint-order="fill markers stroke"/><circle cx="1237.969" cy="275.625" r="12.656" paint-order="fill markers stroke"/><circle cx="1162.031" cy="427.5" r="12.656" paint-order="fill markers stroke"/><circle cx="1237.969" cy="427.5" r="12.656" paint-order="fill markers stroke"/><circle cx="1086.094" cy="579.375" r="12.656" paint-order="fill markers stroke"/><circle cx="1162.031" cy="579.375" r="12.656" paint-order="fill markers stroke"/><circle cx="1237.969" cy="579.375" r="12.656" paint-order="fill markers stroke"/><circle cx="1124.063" cy="655.313" r="12.656" paint-order="fill markers stroke"/><circle cx="1200" cy="655.313" r="12.656" paint-order="fill markers stroke"/><circle cx="1313.906" cy="427.5" r="12.656" paint-order="fill markers stroke"/><circle cx="1313.906" cy="579.375" r="12.656" paint-order="fill markers stroke"/><circle cx="1389.844" cy="579.375" r="12.656" paint-order="fill markers stroke"/><circle cx="1465.781" cy="579.375" r="12.656" paint-order="fill markers stroke"/><circle cx="1465.781" cy="655.312" r="12.656" paint-order="fill markers stroke"/><use href="#D" x="-873.282" y="75.938" paint-order="fill markers stroke"/><use href="#E" y="379.688" paint-order="fill markers stroke"/><use href="#D" x="265.781" y="227.813" paint-order="fill markers stroke"/><use href="#D" x="-303.751" y="379.688" paint-order="fill markers stroke"/><use href="#D" x="265.781" y="379.688" paint-order="fill markers stroke"/><use href="#D" x="-873.282" y="303.75" paint-order="fill markers stroke"/><use href="#D" x="-683.438" paint-order="fill markers stroke"/><use href="#D" x="-417.657" y="75.938" paint-order="fill markers stroke"/><use href="#D" x="-1025.157" y="227.813" paint-order="fill markers stroke"/><use href="#F" paint-order="fill markers stroke"/><use href="#F" x="265.781" y="75.938" paint-order="fill markers stroke"/><path d="M301.406 579.375h6.328c41.42 0 34.459 75.501 75.938 75.938H390" paint-order="fill markers stroke"/><use href="#B" x="-151.875" y="227.813" paint-order="fill markers stroke"/><use href="#B" x="-37.968" y="151.876" paint-order="fill markers stroke"/><use href="#B" x="-37.968" y="303.751" paint-order="fill markers stroke"/><use href="#F" x="303.75" paint-order="fill markers stroke"/><path d="M73.594 351.563h50.625m25.312 0h50.625m25.313 0h50.625M415.312 427.5h50.625m101.25 0h50.625m-126.562 0h50.625m-240.469-75.937h50.625m25.313 0h50.625m177.187 151.875h50.625m25.313 0h50.625M111.562 427.5h50.625" paint-order="fill markers stroke"/><circle cx="250.781" cy="427.5" r="12.656" paint-order="fill markers stroke"/><path d="M187.5 427.5h50.625m-12.656 75.938h50.625m177.187-151.875h50.625m215.156-75.938h50.625m25.313 0h50.625m25.312 0h50.625m215.157-75.937h50.625m-50.625-75.938h37.969M946.875 275.625H997.5m25.313 0h50.625m-88.594 75.938h50.625m25.312 0h50.625m25.313 0h50.625m25.312 0h50.625m25.313 2.343h50.625m25.312-2.343h50.625m-126.562 303.75h50.625M1098.75 275.625h50.625m25.313 0h50.625m-12.657 227.813h50.625m-12.656-227.813h50.625M1098.75 427.5h50.625m25.313 0h50.625m25.312 0h50.625m25.313 0h50.625m-847.969-75.937h50.625m-316.407-75.938h50.625" paint-order="fill markers stroke"/><path d="M529.219 199.688h50.625m25.312 0h50.625M946.875 47.812H997.5M870.937 199.688h50.625m-240.468 0h50.625m215.156 0H997.5m25.313 0h88.594" paint-order="fill markers stroke"/><path d="M1022.813 47.812h50.625M757.031 199.688h88.594m-392.344 0h50.625m-164.531 75.937H390m253.125 0h50.625M-2.344 503.438h50.625m63.281 151.875h50.625m177.188 0H390m-202.5 0h126.562m-12.656-151.875h50.625m25.313 0h50.625M73.594 579.375h50.625m25.312 0h50.625" paint-order="fill markers stroke"/><path d="M225.469 579.375h50.625" paint-order="fill markers stroke"/><use href="#B" x="-569.531" y="529.219" paint-order="fill markers stroke"/><path d="M-2.344 577.031h50.625m25.313-73.593h50.625m25.312 0h126.562M263.437 427.5H390m63.281 75.938h50.625m25.313 0h50.625M415.312 655.313h50.625m25.313 0h50.625m25.312 0h50.625m556.876-75.938h50.625m25.312 0h50.625m25.313 0h50.625m-240.469 75.938h50.625m25.312 0h50.625m101.25 0h88.594m-810 0h50.625" paint-order="fill markers stroke"/><g transform="scale(-1 1)"><circle cx="-1921.406" cy="655.312" r="12.656" paint-order="fill markers stroke"/><circle cx="-1845.469" cy="655.312" r="12.656" paint-order="fill markers stroke"/><circle cx="-1769.531" cy="655.312" r="12.656" paint-order="fill markers stroke"/><circle cx="-1693.594" cy="655.312" r="12.656" paint-order="fill markers stroke"/><circle cx="-1617.656" cy="655.312" r="12.656" paint-order="fill markers stroke"/><circle cx="-1541.719" cy="655.312" r="12.656" paint-order="fill markers stroke"/><circle cx="-1465.781" cy="655.312" r="12.656" paint-order="fill markers stroke"/><circle cx="-1731.562" cy="579.375" r="12.656" paint-order="fill markers stroke"/><circle cx="-1655.625" cy="579.375" r="12.656" paint-order="fill markers stroke"/><circle cx="-1579.687" cy="579.375" r="12.656" paint-order="fill markers stroke"/></g><use href="#G" paint-order="fill markers stroke"/><use href="#G" x="-189.844" y="-75.937" paint-order="fill markers stroke"/><use href="#H" paint-order="fill markers stroke"/><path d="M1908.75 655.312h-50.625m-25.312 0h-50.625m-25.313 0h-50.625m-25.312 0h-50.625m-25.313 0h-50.625m-25.312 0h-50.625m240.468-75.937h-50.625m-25.312 0h-50.625" paint-order="fill markers stroke"/><g transform="matrix(-1 0 0 1 2415 452.81255)"><circle cx="75.938" cy="50.625" r="12.656" paint-order="fill markers stroke"/><circle cx="75.938" cy="126.563" r="12.656" paint-order="fill markers stroke"/><circle cx="151.875" cy="126.563" r="12.656" paint-order="fill markers stroke"/><circle cx="303.75" cy="50.625" r="12.656" paint-order="fill markers stroke"/><circle cx="227.813" cy="126.563" r="12.656" paint-order="fill markers stroke"/><circle cx="151.875" cy="50.625" r="12.656" paint-order="fill markers stroke"/><circle cx="303.75" cy="126.563" r="12.656" paint-order="fill markers stroke"/><circle cx="379.688" cy="50.625" r="12.656" paint-order="fill markers stroke"/><circle cx="113.906" cy="202.5" r="12.656" paint-order="fill markers stroke"/><circle cx="189.844" cy="202.5" r="12.656" paint-order="fill markers stroke"/><circle cx="341.719" cy="202.5" r="12.656" paint-order="fill markers stroke"/><use href="#D" x="-858.282" y="-149.062" paint-order="fill markers stroke"/><path d="M316.406 126.563h6.328c41.42 0 34.459 75.501 75.938 75.938H405M240.469 50.625h50.625m-278.438 0h50.625M126.563 202.5h50.625" paint-order="fill markers stroke"/><path d="M354.375 202.5h126.563m-278.438 0h126.563M316.406 50.625h50.625" paint-order="fill markers stroke"/><path d="M392.344 50.625h50.625M88.594 126.563h50.625m25.312 0h50.625m25.313 0h50.625" paint-order="fill markers stroke"/><use href="#B" x="-554.531" y="76.407" paint-order="fill markers stroke"/><path d="M12.656 124.219h50.625m25.313-73.594h50.625m25.312 0h126.563" paint-order="fill markers stroke"/></g><g transform="rotate(180 1207.5 352.969)"><circle cx="645.469" cy="430.313" r="12.656" paint-order="fill markers stroke"/><circle cx="721.406" cy="430.313" r="12.656" paint-order="fill markers stroke"/><circle cx="797.344" cy="430.313" r="12.656" paint-order="fill markers stroke"/><circle cx="873.281" cy="430.313" r="12.656" paint-order="fill markers stroke"/><circle cx="949.219" cy="430.313" r="12.656" paint-order="fill markers stroke"/><circle cx="1025.156" cy="430.313" r="12.656" paint-order="fill markers stroke"/><circle cx="1101.094" cy="430.313" r="12.656" paint-order="fill markers stroke"/><circle cx="835.313" cy="354.375" r="12.656" paint-order="fill markers stroke"/><circle cx="911.25" cy="354.375" r="12.656" paint-order="fill markers stroke"/><circle cx="987.188" cy="354.375" r="12.656" paint-order="fill markers stroke"/><use href="#D" x="-288.75" y="154.688" paint-order="fill markers stroke"/><use href="#D" x="-98.907" y="78.75" paint-order="fill markers stroke"/><use href="#B" x="432.657" y="306.563" paint-order="fill markers stroke"/><use href="#B" x="546.563" y="382.501" paint-order="fill markers stroke"/><path d="M658.125 430.313h50.625m25.313 0h50.625m25.312 0h50.625m25.313 0h50.625m25.312 0h50.625m25.313 0h50.625m-240.469-75.938h50.625m25.312 0h50.625" paint-order="fill markers stroke"/></g><g transform="scale(-1)"><circle cx="-1845.469" cy="-123.75" r="12.656" paint-order="fill markers stroke"/><circle cx="-1769.531" cy="-123.75" r="12.656" paint-order="fill markers stroke"/><circle cx="-1693.594" cy="-123.75" r="12.656" paint-order="fill markers stroke"/><circle cx="-1541.719" cy="-123.75" r="12.656" paint-order="fill markers stroke"/><circle cx="-1465.781" cy="-123.75" r="12.656" paint-order="fill markers stroke"/><circle cx="-1389.844" cy="-123.75" r="12.656" paint-order="fill markers stroke"/><circle cx="-1655.625" cy="-199.687" r="12.656" paint-order="fill markers stroke"/><circle cx="-1579.687" cy="-199.687" r="12.656" paint-order="fill markers stroke"/></g><use href="#H" x="189.844" y="-455.625" paint-order="fill markers stroke"/><use href="#H" y="-379.688" paint-order="fill markers stroke"/><g transform="scale(-1)"><circle cx="-1541.719" cy="-47.812" r="12.656" paint-order="fill markers stroke"/><circle cx="-1465.781" cy="-47.812" r="12.656" paint-order="fill markers stroke"/><circle cx="-1389.844" cy="-47.812" r="12.656" paint-order="fill markers stroke"/></g><path d="M1377.188 123.75h-6.328c-41.42 0-34.459-75.501-75.937-75.938h-6.328m544.218 75.938h-50.625m-25.313 0h-50.625m-25.313 0h-126.562m-25.312 0h-50.625m-25.313 0H1402.5" paint-order="fill markers stroke"/><path d="M1680.937 47.812h-126.562m-25.312 0h-50.625m-25.313 0H1402.5m240.469 151.875h-50.625" paint-order="fill markers stroke"/><g transform="scale(-1)"><circle cx="-2339.062" cy="-351.562" r="12.656" paint-order="fill markers stroke"/><circle cx="-2263.125" cy="-351.562" r="12.656" paint-order="fill markers stroke"/><circle cx="-2187.187" cy="-351.562" r="12.656" paint-order="fill markers stroke"/><circle cx="-2111.25" cy="-351.562" r="12.656" paint-order="fill markers stroke"/><circle cx="-2339.062" cy="-199.687" r="12.656" paint-order="fill markers stroke"/><circle cx="-2339.062" cy="-123.75" r="12.656" paint-order="fill markers stroke"/><circle cx="-2263.125" cy="-123.75" r="12.656" paint-order="fill markers stroke"/><circle cx="-2111.25" cy="-199.687" r="12.656" paint-order="fill markers stroke"/><circle cx="-2187.187" cy="-123.75" r="12.656" paint-order="fill markers stroke"/><circle cx="-2263.125" cy="-199.687" r="12.656" paint-order="fill markers stroke"/><circle cx="-2111.25" cy="-123.75" r="12.656" paint-order="fill markers stroke"/><circle cx="-1959.375" cy="-503.437" r="12.656" paint-order="fill markers stroke"/><circle cx="-1883.437" cy="-503.437" r="12.656" paint-order="fill markers stroke"/><circle cx="-1807.5" cy="-503.437" r="12.656" paint-order="fill markers stroke"/><circle cx="-2035.312" cy="-351.562" r="12.656" paint-order="fill markers stroke"/><circle cx="-1959.375" cy="-351.562" r="12.656" paint-order="fill markers stroke"/><circle cx="-1883.437" cy="-351.562" r="12.656" paint-order="fill markers stroke"/><circle cx="-1807.5" cy="-351.562" r="12.656" paint-order="fill markers stroke"/><circle cx="-2035.312" cy="-199.687" r="12.656" paint-order="fill markers stroke"/><circle cx="-1959.375" cy="-199.687" r="12.656" paint-order="fill markers stroke"/><circle cx="-1883.437" cy="-199.687" r="12.656" paint-order="fill markers stroke"/><circle cx="-1807.5" cy="-199.687" r="12.656" paint-order="fill markers stroke"/><circle cx="-1731.562" cy="-503.437" r="12.656" paint-order="fill markers stroke"/><circle cx="-1655.625" cy="-503.437" r="12.656" paint-order="fill markers stroke"/><circle cx="-1731.562" cy="-199.687" r="12.656" paint-order="fill markers stroke"/><circle cx="-1200" cy="-199.687" r="12.656" paint-order="fill markers stroke"/><circle cx="-2149.219" cy="-427.5" r="12.656" paint-order="fill markers stroke"/><circle cx="-2073.281" cy="-427.5" r="12.656" paint-order="fill markers stroke"/><circle cx="-2301.094" cy="-275.625" r="12.656" paint-order="fill markers stroke"/><circle cx="-2225.156" cy="-275.625" r="12.656" paint-order="fill markers stroke"/><circle cx="-2301.094" cy="-47.812" r="12.656" paint-order="fill markers stroke"/><circle cx="-2225.156" cy="-47.812" r="12.656" paint-order="fill markers stroke"/><circle cx="-2073.281" cy="-47.812" r="12.656" paint-order="fill markers stroke"/><circle cx="-1997.344" cy="-427.5" r="12.656" paint-order="fill markers stroke"/><circle cx="-1769.531" cy="-427.5" r="12.656" paint-order="fill markers stroke"/><circle cx="-1997.344" cy="-275.625" r="12.656" paint-order="fill markers stroke"/><circle cx="-1921.406" cy="-275.625" r="12.656" paint-order="fill markers stroke"/><circle cx="-1845.469" cy="-275.625" r="12.656" paint-order="fill markers stroke"/><circle cx="-1997.344" cy="-47.812" r="12.656" paint-order="fill markers stroke"/><circle cx="-1921.406" cy="-47.812" r="12.656" paint-order="fill markers stroke"/><circle cx="-1845.469" cy="-47.812" r="12.656" paint-order="fill markers stroke"/><circle cx="-1769.531" cy="-47.812" r="12.656" paint-order="fill markers stroke"/><circle cx="-1693.594" cy="-427.5" r="12.656" paint-order="fill markers stroke"/><circle cx="-1617.656" cy="-427.5" r="12.656" paint-order="fill markers stroke"/><circle cx="-1541.719" cy="-427.5" r="12.656" paint-order="fill markers stroke"/><circle cx="-1465.781" cy="-427.5" r="12.656" paint-order="fill markers stroke"/><circle cx="-1693.594" cy="-47.812" r="12.656" paint-order="fill markers stroke"/></g><use href="#H" x="683.438" y="-227.813" paint-order="fill markers stroke"/><path d="M2098.594 199.687h-6.328c-41.42 0-34.459 75.501-75.937 75.938H2010" paint-order="fill markers stroke"/><use href="#H" x="113.907" y="-531.563" paint-order="fill markers stroke"/><use href="#H" x="683.438" y="-455.625" paint-order="fill markers stroke"/><use href="#H" x="493.594" y="-151.875" paint-order="fill markers stroke"/><use href="#H" x="227.813" y="-227.813" paint-order="fill markers stroke"/><use href="#H" x="835.313" y="-379.688" paint-order="fill markers stroke"/><use href="#G" x="379.687" y="-379.687" paint-order="fill markers stroke"/><use href="#G" x="113.906" y="-455.625" paint-order="fill markers stroke"/><path d="M2098.594 123.75h-6.328c-41.42 0-34.459-75.501-75.937-75.938H2010" paint-order="fill markers stroke"/><use href="#G" x="151.875" y="-227.812" paint-order="fill markers stroke"/><use href="#G" x="37.968" y="-151.875" paint-order="fill markers stroke"/><use href="#G" x="37.968" y="-303.75" paint-order="fill markers stroke"/><use href="#G" x="75.937" y="-379.687" paint-order="fill markers stroke"/><path d="M2326.406 351.562h-50.625m-25.312 0h-50.625m-25.313 0h-50.625m-139.218-75.937h-50.625m-101.25 0h-50.625m126.562 0h-50.625m240.469 75.937h-50.625m-25.313 0h-50.625m-177.187-151.875h-50.625m-25.313 0h-50.625m620.157 75.938h-50.625" paint-order="fill markers stroke"/><circle cx="-2149.219" cy="-275.625" r="12.656" transform="scale(-1)" paint-order="fill markers stroke"/><path d="M2212.5 275.625h-50.625m12.656-75.938h-50.625m-177.187 151.875h-50.625M1680.938 427.5h-50.625m-25.313 0h-50.625m-25.312 0h-50.625m-25.313 0H1402.5m468.281-75.938h-50.625m316.407 75.938h-50.625m-215.157 75.937h-50.625m-25.312 0h-50.625m-25.313 0h-50.625m-25.312 0h-88.594m392.344 0h-50.625m164.531-75.937H2010m-253.125 0h-50.625m696.094-227.813h-50.625m-63.281-151.875h-50.625" paint-order="fill markers stroke"/><path d="M2060.625 47.812H2010m202.5 0h-126.562m12.656 151.875h-50.625m-25.313 0h-50.625m354.375-75.937h-50.625m-25.312 0h-50.625m-25.313 0h-50.625" paint-order="fill markers stroke"/><use href="#G" x="569.531" y="-529.218" paint-order="fill markers stroke"/><path d="M2402.344 126.094h-50.625m-25.313 73.593h-50.625m-25.312 0h-126.562m12.656 75.938H2010m-63.281-75.938h-50.625m-25.313 0h-50.625m164.532-151.875h-50.625m-25.313 0h-50.625m-25.312 0h-50.625m-25.313 0h-50.625" paint-order="fill markers stroke"/></g><path d="M1.287.549h3033.05v888.589H1.287z" fill="url(#A)" paint-order="fill markers stroke"/></svg>