<svg xmlns="http://www.w3.org/2000/svg" width="1013.545" height="936.819" viewBox="0 0 950.198 878.268" xmlns:v="https://vecta.io/nano"><defs><mask id="A" mask-type="alpha" maskUnits="userSpaceOnUse" x="0" y="0" width="100" height="100"><path fill-rule="evenodd" d="M70.912 99.317c1.575.614 3.371.574 4.961-.191l20.588-9.907A6.25 6.25 0 0 0 100 83.587V16.413a6.25 6.25 0 0 0-3.539-5.632L75.873.874c-2.086-1.004-4.528-.758-6.359.573a6.24 6.24 0 0 0-.744.636L29.355 38.042 12.187 25.01c-1.598-1.213-3.834-1.114-5.318.236l-5.506 5.009a4.17 4.17 0 0 0-.004 6.162L16.247 50 1.359 63.583a4.17 4.17 0 0 0 .004 6.162l5.506 5.009c1.484 1.35 3.72 1.45 5.318.236l17.168-13.032 39.414 35.958c.624.624 1.356 1.094 2.143 1.4zm4.103-72.018L45.109 50l29.906 22.701z" fill="#fff"/></mask><filter id="B" x="-8.394" y="15.829" width="116.727" height="92.246" filterUnits="userSpaceOnUse" color-interpolation-filters="sRGB"><feFlood flood-opacity="0" result="A"/><feColorMatrix in="SourceAlpha" values="0 0 0 0 0 0 0 0 0 0 0 0 0 0 0 0 0 0 127 0"/><feOffset/><feGaussianBlur stdDeviation="4.167"/><feColorMatrix values="0 0 0 0 0 0 0 0 0 0 0 0 0 0 0 0 0 0 0.25 0"/><feBlend mode="overlay" in2="A"/><feBlend in="SourceGraphic"/></filter><filter id="C" x="60.417" y="-8.076" width="47.917" height="116.151" filterUnits="userSpaceOnUse" color-interpolation-filters="sRGB"><feFlood flood-opacity="0" result="A"/><feColorMatrix in="SourceAlpha" values="0 0 0 0 0 0 0 0 0 0 0 0 0 0 0 0 0 0 127 0"/><feOffset/><feGaussianBlur stdDeviation="4.167"/><feColorMatrix values="0 0 0 0 0 0 0 0 0 0 0 0 0 0 0 0 0 0 0.25 0"/><feBlend mode="overlay" in2="A"/><feBlend in="SourceGraphic"/></filter><path id="D" d="M286.743-636.504l32.813 57.286h455.794v-57.534l-488.606.506z"/><path id="E" d="M414.095-419.237l32.813 56.414 325.55-.019v-56.691z"/></defs><g transform="translate(0 1179.638)"><g transform="matrix(.957278 .001633 -.00163 .952975 -604.78799 -1280.5992)"><g fill="#4c6c9c"><rect width="145.2" height="145.2" x="1155.716" y="515.948" rx="15.402" transform="rotate(359.9)"/><rect width="112.094" height="112.971" x="1173.294" y="529.918" rx="15.402"/></g><g mask="url(#A)" transform="translate(1179.341 536.403)" fill="#fff"><path d="M96.461 10.796L75.857.876a6.23 6.23 0 0 0-7.107 1.208l-67.451 61.5a4.17 4.17 0 0 0 .004 6.162l5.51 5.009c1.485 1.35 3.722 1.45 5.321.237L93.361 13.37c2.725-2.067 6.639-.124 6.639 3.297v-.239a6.25 6.25 0 0 0-3.539-5.631z"/><g filter="url(#B)"><path d="M96.461 89.204l-20.604 9.921a6.23 6.23 0 0 1-7.107-1.208l-67.451-61.5a4.17 4.17 0 0 1 .004-6.162l5.51-5.009c1.485-1.35 3.722-1.45 5.321-.236L93.361 86.63c2.725 2.067 6.639.124 6.639-3.297v.239a6.25 6.25 0 0 1-3.539 5.631z"/></g><g filter="url(#C)"><path d="M75.858 99.126a6.23 6.23 0 0 1-7.108-1.21c2.306 2.306 6.25.673 6.25-2.589V4.672c0-3.262-3.944-4.895-6.25-2.589C70.622.211 73.472-.274 75.858.874l20.601 9.907A6.25 6.25 0 0 1 100 16.413v67.174a6.25 6.25 0 0 1-3.541 5.633z"/></g><g style="mix-blend-mode:overlay" opacity=".25"><path fill-rule="evenodd" d="M70.851 99.317c1.575.614 3.371.574 4.961-.191L96.4 89.22a6.25 6.25 0 0 0 3.539-5.633V16.413a6.25 6.25 0 0 0-3.539-5.633L75.812.874c-2.086-1.004-4.528-.758-6.359.573-.261.19-.511.402-.744.636L29.294 38.041 12.126 25.01c-1.598-1.213-3.834-1.114-5.318.236l-5.506 5.009a4.17 4.17 0 0 0-.004 6.162L16.186 50 1.298 63.583a4.17 4.17 0 0 0 .004 6.162l5.506 5.009c1.484 1.35 3.72 1.45 5.318.237l17.168-13.032 39.414 35.958a6.22 6.22 0 0 0 2.143 1.4zm4.103-72.018L45.048 50l29.906 22.701z"/></g></g></g><g fill="#1f2d41"><ellipse cx="203.764" cy="-794.629" ry="127.345" rx="126.848"/><ellipse cx="471.967" cy="-1094.74" ry="84.897" rx="84.565"/><g fill-rule="evenodd"><path d="M163.139-653.99c-11.569.281-16.003 7.894-18.469 11.606L4.776-400.584c-14.081 25.472 5.653 44.344 24.441 44.344h349.509c18.806 0 38.531-18.872 23.503-44.344L263.32-642.131c-2.972-5.597-9.422-14.503-25.687-10.641-20.719 4.922-47.025 4.922-67.294-.516-2.663-.534-5.062-.75-7.2-.694zm40.622 47.784c15.656 0 31.313 27.778 63.281 83.344 63.9 111.113 64.538 110.016-63.281 110.016-127.809 0-127.172 1.097-63.281-110.025 31.969-55.556 47.625-83.344 63.281-83.344z"/><path d="M166.419-629.951c-10.635.259-14.711 7.256-16.978 10.669L20.843-397.004C7.898-373.589 26.039-356.24 43.31-356.24h321.291c17.288 0 35.42-17.348 21.606-40.764L258.512-619.049c-2.732-5.145-8.661-13.332-23.614-9.782-19.046 4.525-43.228 4.525-61.861-.474-2.448-.491-4.654-.689-6.619-.638zm37.342 43.926c14.392 0 28.784 25.535 58.172 76.615 58.741 102.142 59.327 101.133-58.172 101.133-117.49 0-116.904 1.008-58.172-101.142 29.388-51.071 43.78-76.615 58.172-76.615z"/></g><path d="M313.851-646.903v.516l32.813 57.028h455.794v.066c46.661 0 84.487 37.973 84.487 84.816 0 22.495-8.901 44.068-24.746 59.974s-37.334 24.842-59.742 24.842v56.691l.45.019c6.609-.049 13.206-.562 19.744-1.537l4.688-19.819a122.34 122.34 0 0 0 17.381-4.894l14.25 14.438a141.29 141.29 0 0 0 31.013-18.347l-5.859-19.641a122.97 122.97 0 0 0 12.722-12.909l19.434 5.306a142.12 142.12 0 0 0 17.672-31.5l-14.784-13.988c1.913-5.742 3.401-11.617 4.453-17.578l19.669-5.203c.656-5.413 1-10.86 1.031-16.312a142.51 142.51 0 0 0-1.538-19.809l-19.744-4.706a123.59 123.59 0 0 0-4.875-17.456l14.381-14.306a142.09 142.09 0 0 0-18.281-31.125l-19.556 5.887a122.96 122.96 0 0 0-12.844-12.787l5.278-19.5c-9.655-7.229-20.19-13.189-31.35-17.738l-13.959 14.831c-5.719-1.93-11.573-3.434-17.512-4.5l-5.175-19.744a140.87 140.87 0 0 0-16.238-1.031l-.45.028v-.037H313.851z"/><path d="M527.439-419.624v.516l32.784 56.156h244.856v-56.681z"/><path d="M444.095-419.624v.516l32.813 56.156h244.847v-56.681z"/><path d="M575.274-1084.367l65.783 42.151c-14.469 5.602-40.637 24.001-36.022 63.098l-78.29-27.081c24.374-21.092 39.251-31.036 48.528-78.168z" paint-order="fill markers stroke"/><path fill-rule="evenodd" d="M375.051-1058.334l-149.55 119.85a145.106 145.669 0 0 1 118.781 108l.656 1.191L449.001-993.45a102.975 103.378 0 0 1-73.95-64.903z"/><ellipse cx="183.168" cy="-1176.15" ry="47.378" rx="47.193" transform="rotate(24.98)"/></g><g transform="matrix(.815021 -.4633 .4633 .815021 14.49256 -971.29452)"><rect transform="matrix(.999999 .001485 .001485 .999999 0 0)" rx="15.49" width="147.575" height="147.575" x="530.652" y="489.602" fill="#4c6c9c"/><path d="M629.893 490.75l-.019 37.441c-6.551 2.668-11.17 9.079-11.172 16.601a17.85 17.85 0 0 0 1.387 6.946l-45.58 45.405a17.99 17.99 0 0 0-6.94-1.414c-9.932-.034-17.983 7.986-17.995 17.925-.006 9.927 8.043 18.007 17.974 18.043 9.94.027 17.991-7.993 17.995-17.925-.002-2.015-.346-3.957-.955-5.769l45.162-44.99-.013 34.311c-6.498 2.686-11.066 9.084-11.072 16.558-.001 9.941 8.042 18.015 17.981 18.05a17.92 17.92 0 0 0 17.99-17.921c.008-7.116-4.13-13.254-10.114-16.191l.014-36.787c5.988-2.895 10.125-9.007 10.13-16.12.004-7.069-4.075-13.175-10.007-16.133l.017-37.959zm47.638.228c.206.039.409.083.612.13a1.13 1.13 0 0 1 .521-.124z" fill="#fff" stroke="#fff" stroke-width="2"/></g><path d="M777.469-988.563c2.22.889 4.333 1.682 5.925 2.799 1.707 1.637 2.177 3.459 2.861 5.526l19.507 67.057c.262 5.062 2.693 6.577-5.852 12.154-6.296 4.2-8.039 3.061-13.445-2.025l-27.087-46.312c-1.118-1.779-4.785-8.505-7.659-10.352-2.964-1.938-7.406-1.645-9.521-1.495l-28.8 1.067c8.77-16.999 8.533-36.267 3.2-49.067l60.87 20.648zm-168.604 24.152c-4.806 24.402-10.244 48.674-15.486 72.986-.316 2.407-.662 4.671-.47 6.637.588 2.326 1.945 3.652 3.41 5.289l48.847 50.725c4.281 2.759 4.408 5.665 13.462.892 6.75-3.471 6.613-5.581 4.836-12.9l-27.053-47.072c-1.001-1.877-5.062-8.477-5.259-11.941-.234-3.589 2.202-7.371 3.371-9.165l19.142-23.45c-20.473-1.808-37.333-18.133-44.8-32z" paint-order="fill markers stroke" fill="#1f2d41"/><g transform="matrix(.9375 0 0 .9375 800.14646 -698.92852)"><rect transform="matrix(-.001485 .999999 -.999999 .001485 0 0)" rx="15.49" width="147.575" height="147.575" x="-96.604" y="332.955" fill="#4c6c9c"/><path d="M-443.404-76.94c-.907.017-1.348.145-1.348.145-4.845 11.373-2.218 19.939-1.408 22.064-5.497 5.7-8.962 13.058-9.209 22.168-.868 31.979 18.425 39.663 36.904 42.275-2.443 2.019-4.703 5.645-5.6 11.018-4.82 2.003-17.002 5.364-24.1-7.596 0 0-4.194-8.133-12.559-8.949 0 0-8.141-.327-.709 5.059 0 0 5.401 2.715 8.936 12.463 0 0 4.495 15.028 27.85 10.609l-.309 15.541c-.034 1.273-.448 3.549-1.426 3.805h44.488c-1.244-.476-1.224-2.84-1.203-3.607.075-2.749-.063-10.806.24-21.973.211-7.786-2.319-12.938-5.242-15.609 18.64-1.562 38.357-8.091 39.227-40.146.247-9.11-2.79-16.643-7.982-22.633.924-2.079 4.012-10.49-.219-22.109 0 0-6.938-2.432-23.16 7.934-6.619-2.03-13.74-3.151-20.832-3.377-7.093-.159-14.257.576-20.965 2.244-11.741-8.423-18.653-9.375-21.375-9.324z" fill="#fff" paint-order="fill markers stroke"/></g><g fill="#1f2d41"><use href="#D" paint-order="fill markers stroke"/><use href="#D" x="-6.111" y="-10.668" paint-order="fill markers stroke"/><use href="#E" paint-order="fill markers stroke"/><use href="#E" x="-7.032" y="-11.332" paint-order="fill markers stroke"/><path d="M729.801-430.865l70.532-.408c103.17-6.602 91.543-148.504 0-147.572l-57.692-.249h-12.84V-605.8l116.338 5.083 56.511 49.076 2.287 84.788-53.584 55.218-147.847.653v-19.883z" paint-order="fill markers stroke"/></g></g></svg>