<svg xmlns="http://www.w3.org/2000/svg" viewBox="0 0 100 100" fill="none" xmlns:v="https://vecta.io/nano"><mask id="A" mask-type="alpha" maskUnits="userSpaceOnUse" x="0" y="0" width="100" height="100"><path fill-rule="evenodd" d="M70.912 99.317c1.575.614 3.371.574 4.961-.191l20.588-9.907A6.25 6.25 0 0 0 100 83.587V16.413a6.25 6.25 0 0 0-3.539-5.632L75.873.874c-2.086-1.004-4.528-.758-6.359.573a6.24 6.24 0 0 0-.744.636L29.355 38.042 12.187 25.01c-1.598-1.213-3.834-1.114-5.318.236l-5.506 5.009a4.17 4.17 0 0 0-.004 6.162L16.247 50 1.359 63.583a4.17 4.17 0 0 0 .004 6.162l5.506 5.009c1.484 1.35 3.72 1.45 5.318.236l17.168-13.032 39.414 35.958c.623.624 1.356 1.094 2.143 1.4zm4.103-72.018L45.109 50l29.906 22.701V27.299z" fill="#fff"/></mask><g mask="url(#A)"><path d="M96.461 10.796L75.857.876a6.23 6.23 0 0 0-7.107 1.208l-67.451 61.5a4.17 4.17 0 0 0 .004 6.162l5.51 5.009c1.485 1.35 3.722 1.45 5.321.236L93.361 13.37c2.725-2.067 6.639-.124 6.639 3.297v-.239a6.25 6.25 0 0 0-3.539-5.631z" fill="#0065a9"/><g filter="url(#B)"><path d="M96.461 89.204l-20.604 9.921a6.23 6.23 0 0 1-7.107-1.208l-67.451-61.5a4.17 4.17 0 0 1 .004-6.162l5.51-5.009c1.485-1.35 3.722-1.45 5.321-.236L93.361 86.63c2.725 2.067 6.639.124 6.639-3.297v.239a6.25 6.25 0 0 1-3.539 5.631z" fill="#007acc"/></g><g filter="url(#C)"><path d="M75.858 99.126a6.23 6.23 0 0 1-7.108-1.21c2.306 2.306 6.25.673 6.25-2.589V4.672c0-3.262-3.944-4.895-6.25-2.589C70.622.211 73.472-.274 75.858.874l20.601 9.907A6.25 6.25 0 0 1 100 16.413v67.174a6.25 6.25 0 0 1-3.541 5.632l-20.601 9.907z" fill="#1f9cf0"/></g><g style="mix-blend-mode:overlay" opacity=".25"><path fill-rule="evenodd" d="M70.851 99.317c1.575.614 3.371.574 4.961-.191L96.4 89.22a6.25 6.25 0 0 0 3.539-5.633V16.413a6.25 6.25 0 0 0-3.539-5.633L75.812.874c-2.086-1.004-4.528-.758-6.359.573-.261.19-.511.402-.744.636L29.294 38.041 12.126 25.01c-1.598-1.213-3.834-1.114-5.318.236l-5.506 5.009a4.17 4.17 0 0 0-.004 6.162L16.186 50 1.298 63.583a4.17 4.17 0 0 0 .004 6.162l5.506 5.009c1.484 1.35 3.72 1.45 5.318.236l17.168-13.032 39.414 35.958a6.22 6.22 0 0 0 2.143 1.4zm4.103-72.018L45.048 50l29.906 22.701V27.299z" fill="url(#D)"/></g></g><defs><filter id="B" x="-8.394" y="15.829" width="116.727" height="92.246" filterUnits="userSpaceOnUse" color-interpolation-filters="sRGB"><feFlood flood-opacity="0" result="A"/><feColorMatrix in="SourceAlpha" values="0 0 0 0 0 0 0 0 0 0 0 0 0 0 0 0 0 0 127 0"/><feOffset/><feGaussianBlur stdDeviation="4.167"/><feColorMatrix values="0 0 0 0 0 0 0 0 0 0 0 0 0 0 0 0 0 0 0.25 0"/><feBlend mode="overlay" in2="A"/><feBlend in="SourceGraphic"/></filter><filter id="C" x="60.417" y="-8.076" width="47.917" height="116.151" filterUnits="userSpaceOnUse" color-interpolation-filters="sRGB"><feFlood flood-opacity="0" result="A"/><feColorMatrix in="SourceAlpha" values="0 0 0 0 0 0 0 0 0 0 0 0 0 0 0 0 0 0 127 0"/><feOffset/><feGaussianBlur stdDeviation="4.167"/><feColorMatrix values="0 0 0 0 0 0 0 0 0 0 0 0 0 0 0 0 0 0 0.25 0"/><feBlend mode="overlay" in2="A"/><feBlend in="SourceGraphic"/></filter><linearGradient id="D" x1="49.939" y1=".258" x2="49.939" y2="99.742" gradientUnits="userSpaceOnUse"><stop stop-color="#fff"/><stop offset="1" stop-color="#fff" stop-opacity="0"/></linearGradient></defs></svg>